<?xml version="1.0" encoding="UTF-8"?>
<svg width="40px" height="40px" viewBox="0 0 40 40" version="1.1" xmlns="http://www.w3.org/2000/svg" xmlns:xlink="http://www.w3.org/1999/xlink">
    <!-- Generator: Sketch 52.5 (67469) - http://www.bohemiancoding.com/sketch -->
    <title>BTC</title>
    <desc>Created with Sketch.</desc>
    <g id="首页" stroke="none" stroke-width="1" fill="none" fill-rule="evenodd">
        <g id="首页登陆样式-选择币种-copy" transform="translate(-105.000000, -581.000000)" fill="#F7921A" fill-rule="nonzero">
            <g id="Group-3" transform="translate(0.000000, 541.000000)">
                <g id="BTC" transform="translate(105.000000, 40.000000)">
                    <path d="M23.6879558,21.74074 C23.2113461,21.4810438 22.1496406,21.1313459 20.8859137,21.0403531 C19.6216399,20.9495586 18,21.0403531 18,21.0403531 L18,26.9915602 C18,26.9915602 19.6932955,27.030812 20.8266566,26.9400174 C21.9589237,26.8492228 23.1278391,26.5381821 23.7122057,26.1876913 C24.2962075,25.8375969 25,25.2930278 25,23.9319023 C25,22.5701821 24.1651125,22.0000398 23.6879558,21.74074 Z M20.1747036,18.9840429 C21.1281211,18.9481393 22.1420612,18.7338116 22.8744966,18.3403306 C23.6076792,17.9470319 24.0229314,17.3275591 23.9990212,16.3975298 C23.9739903,15.4676827 23.3392503,14.6810853 22.2642272,14.3588647 C21.1888305,14.0370085 20.468537,14.0131336 19.6494273,14.0012872 C18.830878,13.9896231 18,14.0610657 18,14.0610657 L18,18.9840429 C18.0001868,18.9840429 19.2218464,19.0199464 20.1747036,18.9840429 Z" id="形状"></path>
                    <path d="M20.0001763,0 C8.95443163,0 0,8.95417633 0,20 C0,31.0456473 8.95443163,40 20.0001763,40 C31.0459211,40 40,31.0456473 40,20 C40,8.95417633 31.0459211,0 20.0001763,0 Z M28.132198,27.5726469 C26.6354251,28.6053843 25.0349066,28.7892315 24.327309,28.8806288 C23.978121,28.9260644 23.3799439,28.9739559 22.7384951,29.0111463 L22.7384951,33 L20.256051,33 L20.256051,29.0757034 L18.3655771,29.0757034 L18.3655771,33 L15.8833104,33 L15.8833104,29.0757034 L11.0001773,29.0757034 L11.5103925,26.1264287 L12.9949288,26.1264287 C13.4939713,26.1264287 13.7023491,26.0806423 13.9110815,25.8857432 C14.119814,25.6904932 14.1662778,25.3924432 14.1662778,25.1510559 L14.1662778,14.9910397 C14.1662778,14.3545915 14.1139616,14.1823224 13.8181539,13.8555023 C13.5223462,13.5279806 12.8266305,13.485001 12.4348803,13.485001 L11,13.485001 L11,10.9355239 L15.8831331,10.9355239 L15.8831331,7 L18.3652225,7 L18.3652225,10.9355239 L20.2556964,10.9355239 L20.2556964,7 L22.7381404,7 L22.7381404,10.9827137 C24.5887122,11.0962148 25.9663108,11.4449632 27.1686948,12.3238513 C28.7232815,13.4597396 28.6417038,15.4331152 28.6069446,15.9036097 C28.5723628,16.3741043 28.3636303,17.2807098 27.9456334,17.8654072 C27.5285232,18.4508063 26.5077383,19.03603 26.5077383,19.03603 C26.5077383,19.03603 27.7138464,19.2882936 28.5610128,19.9194791 C29.4071152,20.5506646 30.0341992,21.6633965 29.9985533,23.2927603 C29.9645035,24.922124 29.6282616,26.540085 28.132198,27.5726469 Z" id="形状"></path>
                </g>
            </g>
        </g>
    </g>
</svg>