<?xml version="1.0" encoding="UTF-8"?>
<svg width="28px" height="28px" viewBox="0 0 28 28" version="1.1" xmlns="http://www.w3.org/2000/svg" xmlns:xlink="http://www.w3.org/1999/xlink">
    <!-- Generator: Sketch 60 (88103) - https://sketch.com -->
    <title>icon_instructions</title>
    <desc>Created with Sketch.</desc>
    <g id="页面-4" stroke="none" stroke-width="1" fill="none" fill-rule="evenodd">
        <g id="Pool_Add-Liquidity_Remove-Liquidity" transform="translate(-1237.000000, -157.000000)">
            <g id="编组-20" transform="translate(615.000000, 139.000000)">
                <g id="形状结合">
                    <g id="icon_instructions" transform="translate(622.000000, 18.000000)">
                        <g>
                            <rect id="矩形" fill="#D8D8D8" opacity="0" x="0" y="0" width="28" height="28"></rect>
                            <g id="编组-60" transform="translate(5.000000, 5.000000)">
                                <circle id="椭圆形" stroke="#878B97" stroke-width="1.575" stroke-linejoin="round" cx="9" cy="9" r="9"></circle>
                                <path d="M9.14453125,3.75 C8.21307282,3.75 7.42259654,4.01512869 6.78360445,4.54598366 C6.09690548,5.11325547 5.75,5.87242543 5.75,6.80273438 C5.75,7.35995506 6.02827533,7.6953125 6.53320312,7.6953125 C6.88233973,7.6953125 7.07851029,7.43953115 7.13795917,7.01968845 L7.15170842,6.88890551 C7.19205657,6.35634063 7.39621924,5.95194149 7.76792115,5.65932509 C8.11552368,5.37643554 8.5701174,5.234375 9.14453125,5.234375 C9.59760442,5.234375 9.98175181,5.34355373 10.3034912,5.56072779 C10.6568158,5.79119439 10.8222656,6.08252994 10.8222656,6.4609375 C10.8222656,6.84103928 10.5523585,7.28819876 9.98947005,7.79227801 C9.23582065,8.43277045 8.78891702,8.91295414 8.6409483,9.26173754 C8.47924477,9.6254816 8.40234375,10.2022392 8.40234375,11 C8.40234375,11.513065 8.66904699,11.8242188 9.14453125,11.8242188 C9.52217188,11.8242188 9.77844012,11.5972383 9.86690713,11.2054558 L9.98070953,10.2362416 C10.035614,9.86839906 10.1659757,9.59233892 10.3671176,9.40609642 C10.7958118,9.00477089 11.2234963,8.6089352 11.6511752,8.21765448 C12.1461148,7.65293 12.3886719,7.07180363 12.3886719,6.4609375 C12.3886719,5.61567595 12.0408515,4.93026519 11.357082,4.4274935 C10.7379203,3.97540549 9.99800233,3.75 9.14453125,3.75 Z" id="？" fill="#878B97" fill-rule="nonzero"></path>
                                <path d="M9.171875,14.4453125 C9.41796875,14.4453125 9.63671875,14.3450521 9.828125,14.1445312 C10.0286458,13.953125 10.1289062,13.734375 10.1289062,13.4882812 C10.1289062,13.2239583 10.0332031,13.000651 9.84179688,12.8183594 C9.65950521,12.6269531 9.43619792,12.53125 9.171875,12.53125 C8.88932292,12.53125 8.66145833,12.6223958 8.48828125,12.8046875 C8.31510417,12.9778646 8.22851562,13.2057292 8.22851562,13.4882812 C8.22851562,13.7526042 8.31966146,13.9759115 8.50195312,14.1582031 C8.69335938,14.3496094 8.91666667,14.4453125 9.171875,14.4453125 Z" id="路径" fill="#878B97" fill-rule="nonzero"></path>
                            </g>
                        </g>
                    </g>
                </g>
            </g>
        </g>
    </g>
</svg>