<?xml version="1.0" encoding="UTF-8"?>
<svg width="32px" height="32px" viewBox="0 0 32 32" version="1.1" xmlns="http://www.w3.org/2000/svg" xmlns:xlink="http://www.w3.org/1999/xlink">
    <!-- Generator: Sketch 60 (88103) - https://sketch.com -->
    <title>icon_更多</title>
    <desc>Created with Sketch.</desc>
    <g id="页面-4" stroke="none" stroke-width="1" fill="none" fill-rule="evenodd" opacity="0.7">
        <g id="Pool_Add-Liquidity-" transform="translate(-1856.000000, -20.000000)">
            <g id="导航" transform="translate(32.000000, 12.000000)">
                <g id="编组-5">
                    <g transform="translate(1824.000000, 8.000000)">
                        <g id="icon_更多">
                            <rect id="矩形" x="0" y="0" width="32" height="32"></rect>
                            <g id="编组-4" transform="translate(7.000000, 9.000000)" fill="#0F1522">
                                <path d="M17.3391993,7.04271891 L19.1175003,9.88800042 C19.2345844,10.075335 19.1776351,10.3221152 18.9903005,10.4391993 C18.9267279,10.4789322 18.8532688,10.5 18.7783009,10.5 L15.2216991,10.5 C15.0007852,10.5 14.8216991,10.3209139 14.8216991,10.1 C14.8216991,10.0250321 14.8427668,9.95157306 14.8824997,9.88800042 L16.6608007,7.04271891 C16.7778848,6.8553843 17.024665,6.79843504 17.2119996,6.91551917 C17.2635072,6.94771145 17.307007,6.99121126 17.3391993,7.04271891 Z" id="三角形" transform="translate(17.000000, 8.500000) rotate(-270.000000) translate(-17.000000, -8.500000) "></path>
                                <path d="M18,0.9 L18,2.1 C18,2.3209139 17.8209139,2.5 17.6,2.5 L0.4,2.5 C0.1790861,2.5 3.60121057e-16,2.3209139 0,2.1 L0,0.9 C-2.705415e-17,0.6790861 0.1790861,0.5 0.4,0.5 L17.6,0.5 C17.8209139,0.5 18,0.6790861 18,0.9 Z" id="路径-11" fill-rule="nonzero"></path>
                                <path d="M13,7.9 L13,9.1 C13,9.3209139 12.8209139,9.5 12.6,9.5 L0.4,9.5 C0.1790861,9.5 3.60121057e-16,9.3209139 0,9.1 L0,7.9 C-2.705415e-17,7.6790861 0.1790861,7.5 0.4,7.5 L12.6,7.5 C12.8209139,7.5 13,7.6790861 13,7.9 Z" id="路径-11备份" fill-rule="nonzero"></path>
                                <path d="M18,14.9 L18,16.1 C18,16.3209139 17.8209139,16.5 17.6,16.5 L0.4,16.5 C0.1790861,16.5 3.60121057e-16,16.3209139 0,16.1 L0,14.9 C-2.705415e-17,14.6790861 0.1790861,14.5 0.4,14.5 L17.6,14.5 C17.8209139,14.5 18,14.6790861 18,14.9 Z" id="路径-11备份-2" fill-rule="nonzero"></path>
                            </g>
                        </g>
                    </g>
                </g>
            </g>
        </g>
    </g>
</svg>