<?xml version="1.0" encoding="UTF-8"?>
<svg width="72px" height="72px" viewBox="0 0 72 72" version="1.1" xmlns="http://www.w3.org/2000/svg" xmlns:xlink="http://www.w3.org/1999/xlink">
    <!-- Generator: Sketch 60 (88103) - https://sketch.com -->
    <title>icon_faile</title>
    <desc>Created with Sketch.</desc>
    <g id="页面-4" stroke="none" stroke-width="1" fill="none" fill-rule="evenodd">
        <g id="Pool_Add-Liquidity_Connect-faile" transform="translate(-926.000000, -410.000000)">
            <g id="编组-8" transform="translate(820.000000, 314.000000)">
                <g id="编组" transform="translate(87.000000, 96.000000)">
                    <g id="icon_faile" transform="translate(19.000000, 0.000000)">
                        <rect id="矩形备份-4" fill="#FF5D37" x="0" y="0" width="72" height="72" rx="36"></rect>
                        <path d="M48.0947816,23.9052184 C49.1470085,24.9574453 49.1470191,26.6634388 48.0948053,27.7156788 L39.8099364,36.0007539 L39.8099364,36.0007539 L48.0946644,44.2844621 C49.1468874,45.3365557 49.1469924,47.0424413 48.0948989,48.0946644 C48.0948598,48.0947035 48.0948207,48.0947425 48.0947816,48.0947816 C47.0426233,49.1469399 45.3367377,49.1469399 44.2845794,48.0947816 C44.2845403,48.0947425 44.2845012,48.0947035 44.2844621,48.0946644 L36.0007539,39.8099364 L36.0007539,39.8099364 L27.7156788,48.0948053 C26.6634388,49.1470191 24.9574453,49.1470085 23.9052184,48.0947816 C22.8531379,47.0427012 22.8531379,45.3369417 23.9052184,44.2848613 C23.9053044,44.2847752 23.9053905,44.2846892 23.9054766,44.2846031 L32.1915715,36.0007539 L32.1915715,36.0007539 L23.9053356,27.7155379 C22.8531126,26.6634443 22.8530076,24.9575587 23.9051011,23.9053356 C23.9051402,23.9052965 23.9051793,23.9052575 23.9052184,23.9052184 C24.9573767,22.8530601 26.6632623,22.8530601 27.7154206,23.9052184 C27.7154597,23.9052575 27.7154988,23.9052965 27.7155379,23.9053356 L36.0007539,32.1915715 L36.0007539,32.1915715 L44.2846031,23.9054766 C45.336541,22.8532535 47.0423004,22.8530224 48.0945234,23.9049602 C48.0946095,23.9050463 48.0946956,23.9051323 48.0947816,23.9052184 Z" id="路径" fill="#FFFFFF" fill-rule="nonzero"></path>
                    </g>
                </g>
            </g>
        </g>
    </g>
</svg>