<?xml version="1.0" encoding="UTF-8"?>
<svg width="48px" height="48px" viewBox="0 0 48 48" version="1.1" xmlns="http://www.w3.org/2000/svg" xmlns:xlink="http://www.w3.org/1999/xlink">
    <!-- Generator: Sketch 60 (88103) - https://sketch.com -->
    <title>icon_discord</title>
    <desc>Created with Sketch.</desc>
    <g id="页面-1" stroke="none" stroke-width="1" fill="none" fill-rule="evenodd" opacity="0.8">
        <g id="H5_Pool_导航" transform="translate(-506.000000, -1230.000000)">
            <g id="编组-31" transform="translate(266.000000, 1229.000000)">
                <g id="icon_discord" transform="translate(240.000000, 1.000000)">
                    <g id="icon_推特">
                        <rect id="矩形" x="0" y="0" width="48" height="48"></rect>
                        <path d="M28.6478209,28.7396648 C27.1068589,28.7396648 25.8608308,27.4084036 25.8608308,25.7632677 C25.8608308,24.1208377 27.1068589,22.7868706 28.6478209,22.7868706 C30.1874299,22.7868706 31.4375167,24.1208377 31.4375167,25.7632677 C31.4375167,27.4084036 30.1874299,28.7396648 28.6478209,28.7396648 L28.6478209,28.7396648 Z M18.4306613,28.7396648 C16.8910523,28.7396648 15.6409655,27.4084036 15.6409655,25.7632677 C15.6409655,24.1208377 16.8910523,22.7868706 18.4306613,22.7868706 C19.9716233,22.7868706 21.2176514,24.1208377 21.2176514,25.7632677 C21.2176514,27.4084036 19.9716233,28.7396648 18.4306613,28.7396648 Z M38.8649804,23.8259038 C37.8949455,19.2666046 35.774939,15.4108175 35.774939,15.4108175 C31.7162157,12.4060093 27.9172507,12.5223594 27.9172507,12.5223594 L27.677786,12.9201143 C32.1166764,13.9483241 34.9050193,16.4701443 34.9050193,16.4701442 C31.2778736,14.4218419 26.3397602,13.7102124 23.5392411,13.7102124 C20.738722,13.7102124 15.8006086,14.4218419 12.1734629,16.4701442 C12.1734629,16.4701442 14.9604529,13.9469712 19.4006962,12.9174084 L19.1612315,12.5223594 C19.1612315,12.5223594 15.3595607,12.4046564 11.3035432,15.4121704 C11.3035432,15.4121704 9.18353672,19.2652517 8.21350185,23.8259038 C7.69882555,26.3040742 7.39469007,28.8213385 7.30434783,31.3507768 C7.30434783,31.3507768 8.75466496,33.3774327 10.8841418,34.3745257 C12.9297383,35.3364431 14.4625828,35.5028508 15.7613743,35.5217915 L17.6622097,33.2678472 C17.6622097,33.2678472 14.4828765,32.3383995 12.802565,30.0844552 C12.802565,30.0844552 17.3009834,33.1690849 23.5392411,33.1690849 C29.776146,33.1690849 34.2759172,30.0844552 34.2759172,30.0844552 C32.5942528,32.3383995 29.4189783,33.2678472 29.4189783,33.2678472 L31.315755,35.5217915 C32.6145465,35.5028508 34.147391,35.3364431 36.1929875,34.3745257 C38.3238173,33.3801385 39.7741344,31.3507768 39.7741344,31.3507768 C39.7741344,31.3507768 39.7037832,27.7709829 38.8649804,23.8259038 Z" id="形状" fill="#BFC7D0" fill-rule="nonzero"></path>
                    </g>
                </g>
            </g>
        </g>
    </g>
</svg>