<?xml version="1.0" encoding="UTF-8"?>
<svg width="88px" height="88px" viewBox="0 0 88 88" version="1.1" xmlns="http://www.w3.org/2000/svg" xmlns:xlink="http://www.w3.org/1999/xlink">
    <!-- Generator: Sketch 60 (88103) - https://sketch.com -->
    <title>icon_submitted@2x</title>
    <desc>Created with Sketch.</desc>
    <g id="页面-4" stroke="none" stroke-width="1" fill="none" fill-rule="evenodd">
        <g id="Pool_Add-Liquidity_Transaction-Submitted" transform="translate(-916.000000, -368.000000)">
            <g id="编组-3" transform="translate(721.000000, 268.000000)">
                <g id="icon_submitted" transform="translate(195.000000, 100.000000)">
                    <rect id="矩形备份-4" fill="#00CA8C" x="0" y="0" width="88" height="88" rx="44"></rect>
                    <path d="M62.1554023,32.1245411 C63.1293531,33.011635 63.1997645,34.5203098 62.3126705,35.4942606 C62.2886034,35.5206842 62.2639455,35.5465635 62.2387153,35.5718789 L40.9103903,56.9723352 C39.6108427,58.2762791 37.5002958,58.2798419 36.1963525,56.9802937 C36.1963523,56.9802934 36.196352,56.9802932 36.1963525,56.9802924 L27.9891957,48.8007937 C27.0562434,47.8709855 27.0536946,46.3609197 27.9835029,45.4279673 C28.0087365,45.4026484 28.0345362,45.3778999 28.0608823,45.3537408 C29.0894111,44.4105895 30.6779899,44.4437269 31.6662932,45.4289488 L38.5430637,52.2842781 L38.5430637,52.2842781 L58.5494582,32.2116242 C59.5347788,31.2230404 61.1235099,31.1846727 62.1554023,32.1245411 Z" id="路径-9" stroke="#FFFFFF" fill="#FFFFFF" fill-rule="nonzero"></path>
                </g>
            </g>
        </g>
    </g>
</svg>