<?xml version="1.0" encoding="UTF-8"?>
<svg width="48px" height="48px" viewBox="0 0 48 48" version="1.1" xmlns="http://www.w3.org/2000/svg" xmlns:xlink="http://www.w3.org/1999/xlink">
    <!-- Generator: Sketch 60 (88103) - https://sketch.com -->
    <title>icon_telegram</title>
    <desc>Created with Sketch.</desc>
    <g id="页面-1" stroke="none" stroke-width="1" fill="none" fill-rule="evenodd" opacity="0.8">
        <g id="H5_Pool_导航" transform="translate(-426.000000, -1230.000000)">
            <g id="编组-31" transform="translate(266.000000, 1229.000000)">
                <g id="icon_telegram" transform="translate(160.000000, 1.000000)">
                    <g id="icon_推特">
                        <rect id="矩形" x="0" y="0" width="48" height="48"></rect>
                        <path d="M38.0771739,9.5894077 C37.5456522,9.3252699 37.0141304,9.3252699 36.75,9.5894077 L10.1869565,22.7799931 C9.65869565,22.7799931 9.39130435,23.3082687 9.39130435,23.8365444 C9.39130435,24.36482 9.65543478,24.8930956 9.92282609,24.8930956 L16.2978261,28.8519017 C16.8293478,29.1160395 17.3608696,29.1160395 17.8923913,28.5877639 L31.9695652,15.9254541 L32.501087,16.1895919 L19.751087,29.6377932 C19.4869565,29.901931 19.4869565,30.1660688 19.4869565,30.4302066 L19.4869565,36.2347164 C19.4869565,36.762992 19.751087,37.2912676 20.2826087,37.5554054 C20.8141304,37.8195432 21.3456522,37.5554054 21.6097826,37.2912676 L24.798913,34.1248749 L31.173913,38.3445578 C31.4380435,38.6086957 31.7054348,38.6086957 31.9695652,38.6086957 L32.501087,38.6086957 C33.0326087,38.3445578 33.2967391,38.08042 33.2967391,37.5521444 L38.6086957,11.1709736 C38.6086957,10.3785602 38.6086957,9.85354551 38.0771739,9.5894077 Z" id="路径" fill="#BFC7D0" fill-rule="nonzero"></path>
                    </g>
                </g>
            </g>
        </g>
    </g>
</svg>