<?xml version="1.0" encoding="UTF-8"?>
<svg width="48px" height="48px" viewBox="0 0 48 48" version="1.1" xmlns="http://www.w3.org/2000/svg" xmlns:xlink="http://www.w3.org/1999/xlink">
    <!-- Generator: Sketch 60 (88103) - https://sketch.com -->
    <title>icon_推特</title>
    <desc>Created with Sketch.</desc>
    <g id="页面-1" stroke="none" stroke-width="1" fill="none" fill-rule="evenodd" opacity="0.8">
        <g id="H5_Pool_导航" transform="translate(-346.000000, -1230.000000)">
            <g id="编组-31" transform="translate(266.000000, 1229.000000)">
                <g id="icon_推特" transform="translate(80.000000, 1.000000)">
                    <g>
                        <rect id="矩形" x="0" y="0" width="48" height="48"></rect>
                        <g id="编组" transform="translate(7.900621, 9.614907)" fill="#BFC7D0" fill-rule="nonzero">
                            <path d="M33.5291711,0.536071148 C33.5291711,0.536071148 30.359531,2.36501977 29.0011138,2.36501977 C26.0578765,-2.20735179 15.190539,-0.149784586 17.0017619,8.53772138 C7.71924437,8.76633996 2.51197844,1.45054546 2.51197844,1.45054546 C2.51197844,1.45054546 -0.657661691,6.70877275 4.54960424,10.8239072 C3.4175899,11.0525257 1.60636697,10.36667 1.60636697,10.36667 C1.60636697,10.36667 0.700755507,14.9390416 7.04003577,16.9966088 C6.36082717,17.9110831 3.87039564,17.2252273 3.87039564,17.2252273 C3.87039564,17.2252273 4.54960424,21.1117432 10.2096759,22.2548361 C6.36082717,25.9127333 -0.431258825,24.7696404 0.0215469081,25.2268776 C5.68161857,30.2564863 30.5859339,31.3995792 30.8123367,7.39462849 C32.1707539,6.93739133 34.4347826,3.50811266 34.4347826,3.50811266 C34.4347826,3.50811266 30.8123367,4.65120555 30.5859339,4.42258697 C33.3027683,2.82225693 33.5291711,0.536071148 33.5291711,0.536071148" id="路径"></path>
                        </g>
                    </g>
                </g>
            </g>
        </g>
    </g>
</svg>