<?xml version="1.0" encoding="UTF-8"?>
<svg width="48px" height="48px" viewBox="0 0 48 48" version="1.1" xmlns="http://www.w3.org/2000/svg" xmlns:xlink="http://www.w3.org/1999/xlink">
    <!-- Generator: Sketch 60 (88103) - https://sketch.com -->
    <title>icon_reddit</title>
    <desc>Created with Sketch.</desc>
    <g id="页面-1" stroke="none" stroke-width="1" fill="none" fill-rule="evenodd" opacity="0.8">
        <g id="H5_Pool_导航" transform="translate(-666.000000, -1230.000000)">
            <g id="编组-31" transform="translate(266.000000, 1229.000000)">
                <g id="icon_reddit" transform="translate(400.000000, 1.000000)">
                    <g id="icon_推特">
                        <rect id="矩形" x="0" y="0" width="48" height="48"></rect>
                        <path d="M25.4828113,9.87777747 C25.5729343,9.46292559 25.8118318,9.31415112 26.1980732,9.42859301 L32.6525964,10.876283 C33.1303913,9.88779113 33.9157488,9.39282991 35.008669,9.39282991 C35.7368056,9.39282991 36.3576529,9.65175469 36.8697804,10.1696043 C37.3819079,10.6874539 37.6394021,11.3140233 37.6394021,12.050743 C37.6512636,12.7562995 37.3730479,13.4358075 36.8697804,13.9304512 C36.384336,14.4367933 35.7100373,14.7182262 35.008669,14.7072256 C34.3034208,14.7072256 33.6940176,14.4540229 33.1818901,13.949048 C32.6762627,13.459655 32.3868708,12.7886983 32.3779358,12.0850756 L26.5399684,10.7403833 L24.6945928,19.1160998 C28.1993759,19.2105144 31.2392389,20.1532295 33.8113206,21.9456758 C34.5165688,21.233275 35.3462726,20.8770746 36.3018624,20.8770746 C37.2400536,20.8573669 38.1435058,21.2320323 38.7924043,21.9099127 C39.4747641,22.6022862 39.8153054,23.4305595 39.8153054,24.3947325 C39.8195203,25.087106 39.6435659,25.7136754 39.2902266,26.2758712 C38.9540398,26.822661 38.4773187,27.2692474 37.9097711,27.5690647 C38.046803,28.1217566 38.115978,28.689087 38.1157665,29.2585132 C38.1186276,32.0623397 36.7539079,34.4598976 34.0201771,36.4483256 C31.2878767,38.4367536 27.9890889,39.4323981 24.1180917,39.4323981 C20.2699828,39.4323981 16.9812087,38.4381841 14.2517694,36.4483256 C11.5223301,34.4598975 10.1576104,32.0637703 10.1576104,29.2585132 C10.1576104,28.7292194 10.2148314,28.1770372 10.3278428,27.6033972 C9.73794322,27.3077451 9.24171781,26.8541099 8.89445795,26.2930375 C8.53301551,25.7262242 8.34323601,25.066964 8.3479104,24.3947325 C8.3479104,23.4276984 8.68846252,22.5994252 9.37082235,21.9099127 C10.0213325,21.2343909 10.9237035,20.8601738 11.8613642,20.8770746 C12.8627308,20.8770746 13.7067398,21.2447192 14.3876691,21.9814389 C16.9125436,20.2133116 19.9280876,19.2591522 23.4328708,19.1203914 L25.4828113,9.87777747 Z M29.4768336,33.1166357 C29.3036749,33.1115336 29.1382551,33.1884114 29.0305102,33.3240617 C28.0749203,34.2896652 26.424096,34.7717517 24.0794675,34.7717517 C21.7334086,34.7717517 20.0840147,34.2896652 19.1284248,33.3240617 C19.02068,33.1884114 18.8552601,33.1115336 18.6821014,33.1166357 C18.5094404,33.1119885 18.3446484,33.1888209 18.2372085,33.3240617 C17.9396596,33.6216106 17.9396596,33.9191596 18.2372085,34.2195696 C19.4431401,35.4383758 21.3886523,36.0477789 24.0737454,36.0477789 C26.7616996,36.0477789 28.7072119,35.4383758 29.9131434,34.2195696 C30.2106923,33.9234511 30.2106923,33.6244717 29.9131434,33.3240617 C29.8105216,33.1875543 29.6474855,33.1100453 29.4768336,33.1166357 L29.4768336,33.1166357 Z M18.3030127,25.2916708 C17.5734455,25.2916708 16.9540288,25.5491651 16.4404707,26.0684452 C15.9377283,26.5633308 15.6600424,27.2428082 15.6722795,27.9481534 C15.6722795,28.6605543 15.9340653,29.2814016 16.4590675,29.8106954 C16.9826392,30.3399892 17.5977644,30.6046361 18.3030127,30.6046361 C19.0068303,30.6046361 19.6219555,30.3399892 20.1469577,29.8106954 C20.6705294,29.2814016 20.9337458,28.6605543 20.9337458,27.9481534 C20.9456072,27.242597 20.6673916,26.5630889 20.164124,26.0684452 C19.6786796,25.5621031 19.004381,25.2806703 18.3030127,25.2916708 L18.3030127,25.2916708 Z M29.8430477,25.2916708 C29.1149111,25.2916708 28.4940638,25.5491651 27.9819363,26.0684452 C27.4786687,26.5630889 27.2004531,27.242597 27.2123145,27.9481534 C27.2123145,28.6605543 27.4741004,29.2814016 27.9991026,29.8106954 C28.5241048,30.3399892 29.1377995,30.6046361 29.8444782,30.6046361 C30.5482959,30.6046361 31.1634211,30.3399892 31.6869928,29.8106954 C32.211995,29.2814016 32.4737809,28.6605543 32.4737809,27.9481534 C32.4856423,27.242597 32.2074267,26.5630889 31.7041591,26.0684452 C31.2190553,25.5624704 30.5453519,25.2810697 29.8444782,25.2916708 L29.8430477,25.2916708 Z" id="形状" fill="#BFC7D0" fill-rule="nonzero"></path>
                    </g>
                </g>
            </g>
        </g>
    </g>
</svg>