<?xml version="1.0" encoding="UTF-8"?>
<svg width="72px" height="72px" viewBox="0 0 72 72" version="1.1" xmlns="http://www.w3.org/2000/svg" xmlns:xlink="http://www.w3.org/1999/xlink">
    <!-- Generator: Sketch 60 (88103) - https://sketch.com -->
    <title>icon_successfully</title>
    <desc>Created with Sketch.</desc>
    <g id="页面-4" stroke="none" stroke-width="1" fill="none" fill-rule="evenodd">
        <g id="Pool_Add-Liquidity_Connect-successfully" transform="translate(-924.000000, -411.000000)">
            <g id="编组-8" transform="translate(820.000000, 314.000000)">
                <g id="编组" transform="translate(55.000000, 97.000000)">
                    <g id="icon_successfully" transform="translate(49.000000, 0.000000)">
                        <rect id="矩形备份-4" fill="#00CA8C" x="0" y="0" width="72" height="72" rx="36"></rect>
                        <path d="M52.3398621,23.512087 C53.2164178,24.3104715 53.279788,25.6682788 52.4814035,26.5448345 C52.4597431,26.5686157 52.4375509,26.5919071 52.4148438,26.614691 L33.2193513,45.8751016 C32.0497584,47.0486512 30.1502662,47.0518577 28.9767172,45.8822643 C28.976717,45.8822641 28.9767168,45.8822639 28.9767172,45.8822631 L21.5902761,38.5207144 C20.750619,37.6838869 20.7483252,36.3248277 21.5851526,35.4851706 C21.6078629,35.4623836 21.6310826,35.4401099 21.6547941,35.4183667 C22.58047,34.5695306 24.0101909,34.5993542 24.8996639,35.4860539 L31.0887573,41.6558502 L31.0887573,41.6558502 L49.0945124,23.5904618 C49.9813009,22.7007364 51.4111589,22.6662054 52.3398621,23.512087 Z" id="路径-9" stroke="#FFFFFF" stroke-width="1.5" fill="#FFFFFF" fill-rule="nonzero"></path>
                    </g>
                </g>
            </g>
        </g>
    </g>
</svg>