<?xml version="1.0" encoding="UTF-8"?>
<svg width="50px" height="50px" viewBox="0 0 50 50" version="1.1" xmlns="http://www.w3.org/2000/svg" xmlns:xlink="http://www.w3.org/1999/xlink">
    <!-- Generator: Sketch 60 (88103) - https://sketch.com -->
    <title>icon_导航面包屑</title>
    <desc>Created with Sketch.</desc>
    <g id="页面-1" stroke="none" stroke-width="1" fill="none" fill-rule="evenodd">
        <g id="H5_Pool_Add-Liquidity_Approve" transform="translate(-670.000000, -32.000000)">
            <g id="编组-25" transform="translate(320.000000, 23.000000)">
                <g id="icon_导航面包屑" transform="translate(351.000000, 10.000000)">
                    <g transform="translate(-0.000000, 0.000000)">
                        <g>
                            <rect id="矩形" x="0" y="0" width="48.7619048" height="48.7619048"></rect>
                            <g id="编组-4" transform="translate(4.571429, 8.619048)" fill="#FC6446">
                                <path d="M38.8972431,31.5614035 C39.7388199,31.5614035 40.4210526,32.2436363 40.4210526,33.085213 C40.4210526,33.9267898 39.7388199,34.6090226 38.8972431,34.6090226 L1.52380952,34.6090226 C0.682232762,34.6090226 -8.59653647e-13,33.9267898 -8.5975671e-13,33.085213 C-8.59859774e-13,32.2436363 0.682232762,31.5614035 1.52380952,31.5614035 L38.8972431,31.5614035 Z M32.9142116,12.6219899 C33.0825605,12.6219899 33.2475212,12.6693 33.3902808,12.7585247 L39.7796849,16.7519023 C40.2003662,17.0148281 40.3282522,17.5690011 40.0653265,17.9896823 C39.993035,18.1053486 39.8953512,18.2030324 39.7796849,18.2753238 L33.3902808,22.2687014 C32.9695996,22.5316271 32.4154266,22.4037411 32.1525008,21.9830598 C32.0632761,21.8403002 32.015966,21.6753396 32.015966,21.5069906 L32.015966,13.5202355 C32.015966,13.0241482 32.4181243,12.6219899 32.9142116,12.6219899 Z M27.6691729,15.8421053 C28.5107497,15.8421053 29.1929825,16.524338 29.1929825,17.3659148 C29.1929825,18.2074915 28.5107497,18.8897243 27.6691729,18.8897243 L1.52380952,18.8897243 C0.682232762,18.8897243 -3.19641168e-13,18.2074915 -3.19744231e-13,17.3659148 C-3.19847295e-13,16.524338 0.682232762,15.8421053 1.52380952,15.8421053 L27.6691729,15.8421053 Z M38.8972431,0.122807018 C39.7388199,0.122807018 40.4210526,0.80503978 40.4210526,1.64661654 C40.4210526,2.4881933 39.7388199,3.17042607 38.8972431,3.17042607 L1.52380952,3.17042607 C0.682232762,3.17042607 -8.59653647e-13,2.4881933 -8.5975671e-13,1.64661654 C-8.59859774e-13,0.80503978 0.682232762,0.122807018 1.52380952,0.122807018 L38.8972431,0.122807018 Z" id="形状结合"></path>
                            </g>
                        </g>
                    </g>
                </g>
            </g>
        </g>
    </g>
</svg>