<?xml version="1.0" encoding="UTF-8"?>
<svg width="48px" height="48px" viewBox="0 0 48 48" version="1.1" xmlns="http://www.w3.org/2000/svg" xmlns:xlink="http://www.w3.org/1999/xlink">
    <!-- Generator: Sketch 60 (88103) - https://sketch.com -->
    <title>icon_medium</title>
    <desc>Created with Sketch.</desc>
    <g id="页面-1" stroke="none" stroke-width="1" fill="none" fill-rule="evenodd" opacity="0.8">
        <g id="H5_Pool_导航" transform="translate(-586.000000, -1230.000000)">
            <g id="编组-31" transform="translate(266.000000, 1229.000000)">
                <g id="icon_medium" transform="translate(320.000000, 1.000000)">
                    <g id="icon_推特">
                        <rect id="矩形" x="0" y="0" width="48" height="48"></rect>
                        <path d="M18.4828561,16.241725 L18.4828561,36.157059 C18.4828561,36.4611099 18.432181,36.6638105 18.2801555,36.8665111 C18.1281301,37.0692117 17.9254295,37.170562 17.6720537,37.170562 C17.4693531,37.170562 17.3173277,37.1198869 17.1146271,37.0185366 L9.20930363,33.0658749 C8.95592789,32.9645246 8.75322728,32.761824 8.60120183,32.5084482 C8.44917638,32.2550725 8.34782609,32.0016967 8.34782609,31.6976458 L8.34782609,12.3904136 C8.34782609,12.187713 8.39850125,11.9850124 8.49985154,11.8329869 C8.60120183,11.6809615 8.75322728,11.5796112 9.00660305,11.5796112 C9.1586285,11.5796112 9.41200424,11.6809615 9.7667303,11.8329869 L18.432181,16.1910498 C18.4828561,16.1910498 18.4828561,16.241725 18.4828561,16.241725 Z M19.5470343,17.9646801 L28.6178862,32.6604736 L19.5470343,28.1503853 L19.5470343,17.9646801 Z M38.7529162,18.268731 L38.7529162,36.157059 C38.7529162,36.4611099 38.6515659,36.6638105 38.4995405,36.8665111 C38.347515,37.0185366 38.1448144,37.1198869 37.8407635,37.1198869 C37.5367126,37.1198869 37.2833369,37.0692117 37.0299611,36.9171863 L29.5300389,33.1672252 L38.7529162,18.268731 Z M38.7022411,16.241725 C38.7022411,16.2924001 37.2326617,18.623457 34.3441782,23.336246 C31.4556946,28.049035 29.7327395,30.7854931 29.225988,31.5962955 L22.6382185,20.8531637 L28.1111347,11.9343372 C28.3138353,11.6302863 28.6178862,11.4782609 28.9726122,11.4782609 C29.1246377,11.4782609 29.2766631,11.528936 29.4286886,11.5796112 L38.6008908,16.1403747 C38.7022411,16.1403747 38.7022411,16.1910498 38.7022411,16.241725 L38.7022411,16.241725 Z" id="形状" fill="#BFC7D0" fill-rule="nonzero"></path>
                    </g>
                </g>
            </g>
        </g>
    </g>
</svg>