<?xml version="1.0" encoding="UTF-8"?>
<svg width="50px" height="50px" viewBox="0 0 50 50" version="1.1" xmlns="http://www.w3.org/2000/svg" xmlns:xlink="http://www.w3.org/1999/xlink">
    <!-- Generator: Sketch 60 (88103) - https://sketch.com -->
    <title>icon_关闭_nor</title>
    <desc>Created with Sketch.</desc>
    <g id="页面-1" stroke="none" stroke-width="1" fill="none" fill-rule="evenodd">
        <g id="H5_Pool_导航" transform="translate(-670.000000, -34.000000)">
            <g id="icon_关闭_nor" transform="translate(670.000000, 34.000000)">
                <g>
                    <rect id="矩形" fill="#D8D8D8" opacity="0" x="0" y="0" width="50" height="50"></rect>
                    <path d="M24.9111111,9 C25.8929507,9 26.6888889,9.79593822 26.6888889,10.7777778 L26.688,23.133 L39.2222222,23.1333333 C40.2040618,23.1333333 41,23.9292716 41,24.9111111 C41,25.8929507 40.2040618,26.6888889 39.2222222,26.6888889 L26.688,26.688 L26.6888889,39.2222222 C26.6888889,40.2040618 25.8929507,41 24.9111111,41 C23.9292716,41 23.1333333,40.2040618 23.1333333,39.2222222 L23.133,26.688 L10.7777778,26.6888889 C9.79593822,26.6888889 9,25.8929507 9,24.9111111 C9,23.9292716 9.79593822,23.1333333 10.7777778,23.1333333 L23.133,23.133 L23.1333333,10.7777778 C23.1333333,9.79593822 23.9292716,9 24.9111111,9 Z" id="合并形状" fill="#FFFFFF" transform="translate(25.000000, 25.000000) rotate(45.000000) translate(-25.000000, -25.000000) "></path>
                </g>
            </g>
        </g>
    </g>
</svg>