<?xml version="1.0" encoding="UTF-8"?>
<svg width="180px" height="64px" viewBox="0 0 180 64" version="1.1" xmlns="http://www.w3.org/2000/svg" xmlns:xlink="http://www.w3.org/1999/xlink">
    <!-- Generator: Sketch 55.2 (78181) - https://sketchapp.com -->
    <title>白底备份</title>
    <desc>Created with Sketch.</desc>
    <defs>
        <linearGradient x1="13.1032294%" y1="79.1162716%" x2="98.0622028%" y2="0%" id="linearGradient-1">
            <stop stop-color="#FFFFFF" offset="0%"></stop>
            <stop stop-color="#A7A7A7" offset="100%"></stop>
        </linearGradient>
        <linearGradient x1="13.1032294%" y1="79.1162716%" x2="98.0622028%" y2="-1.11022302e-14%" id="linearGradient-2">
            <stop stop-color="#FFFFFF" offset="0%"></stop>
            <stop stop-color="#A7A7A7" offset="100%"></stop>
        </linearGradient>
    </defs>
    <g id="弹窗/启动图关闭按钮" stroke="none" stroke-width="1" fill="none" fill-rule="evenodd">
        <g id="白底" transform="translate(-250.000000, 0.000000)"></g>
        <g id="黑底" transform="translate(16.000000, 17.000000)" fill-rule="nonzero">
            <g id="Group">
                <g id="Group-2">
                    <g id="Group-18">
                        <polygon id="Fill-1" fill="#E6AF00" points="22.8979592 18.3902439 10.4081633 18.3902439 13.1847603 23.3414634 20.1213621 23.3414634"></polygon>
                        <polygon id="Fill-2" fill="#FFFFFF" points="11.1020408 4.95121951 22.8979592 4.95121951 20.2735615 0 13.7250514 0"></polygon>
                        <g id="Group-17" transform="translate(0.000000, 5.658537)">
                            <path d="M16.8523242,23.3414634 C17.6880196,21.8682052 18.4896884,20.4553601 19.309051,19.0136815 L14.3915141,19.0136815 C15.21496,20.4594792 16.0193509,21.8750703 16.8523242,23.3414634" id="Fill-3" fill="#E6AF00"></path>
                            <path d="M0.242945212,5.56542869 L3.59117127,11.4172709 L9.71461397,11.4172709 L9.7132529,11.4158978 C11.8351571,7.67714462 13.8699531,4.09079742 15.9496642,0.427560689 L3.42375997,0.427560689 L3.42512104,0.427560689 L0.242945212,5.56542869" id="Fill-5" fill="#FFFFFF"></path>
                            <polygon id="Rectangle" fill="url(#linearGradient-1)" points="0.256971929 5.5746571 15.961646 0.428016884 3.60382335 11.4187496"></polygon>
                            <path d="M30.2143322,11.4172709 L24.0908895,11.4172709 L24.0922505,11.4158978 C21.9703463,7.67714462 19.9355504,4.09079742 17.8558392,0.427560689 L30.3817435,0.427560689 L30.3803824,0.427560689 L33.5625582,5.56542869 L30.2143322,11.4172709 Z" id="Fill-7" fill="#FFFFFF"></path>
                            <path d="M22.6540105,11.4172709 C20.7172115,8.01079024 18.8144391,4.66197676 16.8436133,1.19920201 C14.8714265,4.67570703 12.9754595,8.01628235 11.0468268,11.4172709 L22.6540105,11.4172709 Z" id="Fill-9" fill="#E6AF00"></path>
                            <polygon id="Rectangle-Copy-2" fill="url(#linearGradient-2)" transform="translate(25.727960, 5.924292) scale(-1, 1) translate(-25.727960, -5.924292) " points="17.9018697 5.5746571 33.5540505 0.430629164 21.2088871 11.4179546"></polygon>
                        </g>
                    </g>
                </g>
                <g id="Group-44" transform="translate(42.000000, 7.164400)" fill="#FFFFFF">
                    <path d="M17.0933,6.2114 C16.1093,6.2114 15.8203,6.9424 15.5143,8.4874 C15.4273,8.9124 15.3273,9.5244 15.3273,9.8634 C15.3273,10.1354 15.3593,10.7644 16.1243,10.7644 C17.1103,10.7644 17.3993,10.0334 17.7053,8.4874 C17.7883,8.0634 17.8903,7.4524 17.8903,7.1124 C17.8903,6.8404 17.8583,6.2114 17.0933,6.2114 M20.3553,8.4874 C20.0323,10.2714 19.7433,11.5114 18.9273,12.3264 C18.3833,12.8704 17.5693,13.1584 16.6683,13.1584 C15.5653,13.1584 15.0033,12.7514 14.6463,12.2604 L14.4943,13.0574 L11.9463,13.0574 L14.3583,0.9624 L17.0083,0.9624 L16.2963,4.5814 C16.7193,4.1064 17.4673,3.8184 18.2153,3.8184 C19.4033,3.8184 20.6433,4.4964 20.6433,6.3484 C20.6433,6.7554 20.5423,7.4844 20.3553,8.4874" id="Fill-18"></path>
                    <path d="M26.0498,5.9915 C25.3528,5.9915 24.7238,6.4165 24.3838,7.5875 L27.0508,7.5875 C27.0848,7.4515 27.1018,7.2495 27.1018,7.1455 C27.1018,6.4485 26.7448,5.9915 26.0498,5.9915 M29.3118,9.3365 L24.0448,9.3365 C24.0278,9.5065 24.0118,9.5915 24.0118,9.7105 C24.0118,10.4415 24.4518,10.9345 25.3528,10.9345 C26.1178,10.9345 26.7448,10.6285 27.3058,10.0855 L28.6298,11.8165 C27.7138,12.7005 26.3728,13.1595 25.0298,13.1595 C23.5518,13.1595 21.4968,12.4795 21.4968,9.9155 C21.4968,6.6695 23.1108,3.8175 26.2018,3.8175 C28.1388,3.8175 29.6168,5.0395 29.6168,7.1455 C29.6168,7.8425 29.4798,8.6225 29.3118,9.3365" id="Fill-20"></path>
                    <path d="M33.3231,10.1696 C33.3061,10.2716 33.2901,10.3216 33.2901,10.4246 C33.2901,10.6776 33.4601,10.8156 33.7821,10.8156 L34.7511,10.8156 L34.2931,13.0576 L32.9841,13.0576 C31.4721,13.0576 30.6051,12.1226 30.6051,10.9346 C30.6051,10.6626 30.6241,10.4406 30.6751,10.1866 L32.5091,0.9626 L35.1581,0.9626 L33.3231,10.1696 Z" id="Fill-22"></path>
                    <path d="M40.3767,6.2114 C40.0367,6.2114 39.7637,6.3134 39.5607,6.5174 C39.1867,6.8744 38.9827,7.5544 38.7957,8.4874 C38.6277,9.3884 38.6097,9.6944 38.6097,9.8124 C38.6097,10.4074 38.8807,10.7644 39.4247,10.7644 C39.7637,10.7644 40.0367,10.6624 40.2397,10.4584 C40.6127,10.1014 40.8187,9.4234 41.0037,8.4874 C41.1737,7.5884 41.1907,7.2824 41.1907,7.1634 C41.1907,6.5684 40.9207,6.2114 40.3767,6.2114 M43.6387,8.4874 C43.2987,10.3054 42.8887,11.2404 42.0577,12.0714 C41.4117,12.7174 40.4097,13.1584 39.1527,13.1584 C37.5737,13.1584 35.9777,12.1904 35.9777,10.1354 C35.9777,9.5754 36.0787,8.9124 36.1637,8.4874 C36.5037,6.6704 36.9107,5.7374 37.7437,4.9044 C38.3897,4.2584 39.3907,3.8184 40.6467,3.8184 C42.2277,3.8184 43.8257,4.7854 43.8257,6.8404 C43.8257,7.4014 43.7217,8.0634 43.6387,8.4874" id="Fill-24"></path>
                    <polygon id="Fill-26" points="47.2767 13.0575 44.3717 13.0575 44.9837 9.9995 47.8887 9.9995"></polygon>
                    <polygon id="Fill-28" points="59.0837 3.444 54.1067 3.444 53.6317 5.805 57.8767 5.805 57.3857 8.285 53.1227 8.285 52.1707 13.057 49.3517 13.057 51.7797 0.963 59.5777 0.963"></polygon>
                    <path d="M63.472,3.0194 L60.822,3.0194 L61.23,0.9634 L63.88,0.9634 L63.472,3.0194 Z M61.468,13.0574 L58.818,13.0574 L60.567,4.2754 L63.217,4.2754 L61.468,13.0574 Z" id="Fill-30"></path>
                    <path d="M72.0344,7.3842 L70.8954,13.0572 L68.2464,13.0572 L69.3504,7.5362 C69.3844,7.3842 69.4014,7.2142 69.4014,7.0782 C69.4014,6.4682 68.9764,6.2112 68.6384,6.2112 C68.0264,6.2112 67.4314,6.5172 67.2264,7.5362 L66.1234,13.0572 L63.4734,13.0572 L65.2904,3.9182 L67.8214,3.9182 L67.6694,4.7172 C68.2464,4.1392 69.1124,3.8172 69.9114,3.8172 C70.8124,3.8172 72.1534,4.4282 72.1534,6.3302 C72.1534,6.7062 72.1024,7.0782 72.0344,7.3842" id="Fill-32"></path>
                    <path d="M76.4892,9.3039 C75.7262,9.3039 75.3522,9.8289 75.3522,10.3389 C75.3522,10.7129 75.6242,11.0189 76.1512,11.0189 C76.6422,11.0189 77.0332,10.7979 77.2882,10.5429 C77.5262,10.3049 77.6622,9.9309 77.7302,9.5589 L77.7812,9.3039 L76.4892,9.3039 Z M80.8372,7.2989 L79.6832,13.0569 L77.1352,13.0569 L77.2882,12.3089 C76.8642,12.7339 76.2182,13.1419 75.3012,13.1419 C73.6352,13.1419 72.7532,11.8839 72.7532,10.6449 C72.7532,9.6779 73.0592,8.9469 73.5672,8.4539 C74.2152,7.8249 75.1822,7.5369 76.2342,7.5369 L78.1372,7.5369 L78.2052,7.2139 C78.2382,7.0789 78.2562,6.9759 78.2562,6.8239 C78.2562,6.3649 77.9672,6.0249 77.1692,6.0249 C76.4042,6.0249 75.8112,6.3649 75.4712,6.7549 L74.1462,4.9889 C74.8422,4.3259 75.8112,3.8179 77.5942,3.8179 C79.2582,3.8179 80.9402,4.5309 80.9402,6.4489 C80.9402,6.7219 80.8882,7.0439 80.8372,7.2989 Z" id="Fill-34"></path>
                    <path d="M90.0997,7.3842 L88.9607,13.0572 L86.3117,13.0572 L87.4157,7.5362 C87.4497,7.3842 87.4667,7.2142 87.4667,7.0782 C87.4667,6.4682 87.0417,6.2112 86.7037,6.2112 C86.0917,6.2112 85.4967,6.5172 85.2917,7.5362 L84.1887,13.0572 L81.5387,13.0572 L83.3557,3.9182 L85.8867,3.9182 L85.7347,4.7172 C86.3117,4.1392 87.1777,3.8172 87.9767,3.8172 C88.8777,3.8172 90.2187,4.4282 90.2187,6.3302 C90.2187,6.7062 90.1677,7.0782 90.0997,7.3842" id="Fill-36"></path>
                    <path d="M96.7631,6.8061 C96.4911,6.4491 96.2021,6.2111 95.7941,6.2111 C95.4541,6.2111 95.1331,6.3491 94.8771,6.6191 C94.5031,7.0111 94.2141,7.6561 94.0621,8.4871 C93.9941,8.8441 93.9431,9.1851 93.9431,9.5581 C93.9431,10.2211 94.1301,10.7641 94.8591,10.7641 C95.3351,10.7641 95.7261,10.5431 96.1171,10.1531 L97.5771,12.0721 C96.8481,12.7171 95.7771,13.1581 94.5711,13.1581 C93.0591,13.1581 91.2761,12.2421 91.2761,9.9151 C91.2761,9.4391 91.3271,8.9471 91.4121,8.4871 C92.1591,4.4131 94.4521,3.8181 96.0491,3.8181 C97.4071,3.8181 98.2401,4.3941 98.7671,5.0401 L96.7631,6.8061 Z" id="Fill-38"></path>
                    <path d="M103.4086,5.9915 C102.7116,5.9915 102.0826,6.4165 101.7426,7.5875 L104.4096,7.5875 C104.4436,7.4515 104.4606,7.2495 104.4606,7.1455 C104.4606,6.4485 104.1036,5.9915 103.4086,5.9915 M106.6706,9.3365 L101.4036,9.3365 C101.3866,9.5065 101.3706,9.5915 101.3706,9.7105 C101.3706,10.4415 101.8106,10.9345 102.7116,10.9345 C103.4766,10.9345 104.1036,10.6285 104.6646,10.0855 L105.9886,11.8165 C105.0726,12.7005 103.7316,13.1595 102.3886,13.1595 C100.9106,13.1595 98.8556,12.4795 98.8556,9.9155 C98.8556,6.6695 100.4696,3.8175 103.5606,3.8175 C105.4976,3.8175 106.9756,5.0395 106.9756,7.1455 C106.9756,7.8425 106.8386,8.6225 106.6706,9.3365" id="Fill-40"></path>
                    <polygon id="Fill-42" points="9.156 0.9627 6.964 0.9627 0.374 13.0577 3.381 13.0577 7.304 5.2947 8.068 13.0577 10.939 13.0577"></polygon>
                </g>
            </g>
        </g>
    </g>
</svg>