<?xml version="1.0" encoding="UTF-8"?>
<svg width="32px" height="32px" viewBox="0 0 32 32" version="1.1" xmlns="http://www.w3.org/2000/svg" xmlns:xlink="http://www.w3.org/1999/xlink">
    <!-- Generator: Sketch 60 (88103) - https://sketch.com -->
    <title>icon_telegram</title>
    <desc>Created with Sketch.</desc>
    <g id="页面-2" stroke="none" stroke-width="1" fill="none" fill-rule="evenodd">
        <g id="关于" transform="translate(-904.000000, -949.000000)">
            <g id="编组-7" transform="translate(600.000000, 192.000000)">
                <g id="编组-20">
                    <g id="形状结合">
                        <g id="编组-3" transform="translate(144.000000, 757.000000)">
                            <g id="icon_telegram" transform="translate(160.000000, 0.000000)">
                                <g id="icon_推特">
                                    <rect id="矩形" x="0" y="0" width="32" height="32"></rect>
                                    <path d="M24.6543527,6.12882614 C24.3087054,5.95705795 23.963058,5.95705795 23.7912946,6.12882614 L6.51741071,14.7066324 C6.17388393,14.7066324 6,15.0501688 6,15.3937052 C6,15.7372416 6.17176339,16.0807779 6.34564732,16.0807779 L10.4912946,18.6551801 C10.836942,18.8269483 11.1825893,18.8269483 11.5282366,18.4834119 L20.6825893,10.249142 L21.0282366,10.4209102 L12.736942,19.1662435 C12.5651786,19.3380117 12.5651786,19.5097798 12.5651786,19.681548 L12.5651786,23.4562069 C12.5651786,23.7997433 12.736942,24.1432797 13.0825893,24.3150479 C13.4282366,24.486816 13.7738839,24.3150479 13.9456473,24.1432797 L16.0195313,22.084182 L20.1651786,24.8282318 C20.336942,25 20.5108259,25 20.6825893,25 L21.0282366,25 C21.3738839,24.8282318 21.5456473,24.6564636 21.5456473,24.3129273 L25,7.15731466 C25,6.6420101 25,6.30059432 24.6543527,6.12882614 Z" id="路径" fill="#FC6446" fill-rule="nonzero"></path>
                                </g>
                            </g>
                        </g>
                    </g>
                </g>
            </g>
        </g>
    </g>
</svg>