<?xml version="1.0" encoding="UTF-8"?>
<svg width="32px" height="32px" viewBox="0 0 32 32" version="1.1" xmlns="http://www.w3.org/2000/svg" xmlns:xlink="http://www.w3.org/1999/xlink">
    <!-- Generator: Sketch 60 (88103) - https://sketch.com -->
    <title>icon_推特</title>
    <desc>Created with Sketch.</desc>
    <g id="页面-2" stroke="none" stroke-width="1" fill="none" fill-rule="evenodd">
        <g id="关于" transform="translate(-824.000000, -949.000000)">
            <g id="编组-7" transform="translate(600.000000, 192.000000)">
                <g id="编组-20">
                    <g id="形状结合">
                        <g id="编组-3" transform="translate(144.000000, 757.000000)">
                            <g id="icon_推特" transform="translate(80.000000, 0.000000)">
                                <g>
                                    <rect id="矩形" x="0" y="0" width="32" height="32"></rect>
                                    <g id="编组" transform="translate(5.000000, 6.000000)" fill="#FC6446" fill-rule="nonzero">
                                        <path d="M22.3951156,0.361517117 C22.3951156,0.361517117 20.2780201,1.59492846 19.3706934,1.59492846 C17.4048191,-1.48859989 10.1462059,-0.101012136 11.3559748,5.75769173 C5.15590943,5.91186815 1.67782398,0.978222787 1.67782398,0.978222787 C1.67782398,0.978222787 -0.439271508,4.52428039 3.03881394,7.29945591 C2.28270841,7.45363233 1.07293956,6.99110307 1.07293956,6.99110307 C1.07293956,6.99110307 0.468055131,10.0746314 4.70224611,11.4622192 C4.24858279,12.0789249 2.58515062,11.6163956 2.58515062,11.6163956 C2.58515062,11.6163956 3.03881394,14.2373947 6.8193416,15.0082768 C4.24858279,17.4750995 -0.288050402,16.7042174 0.0143918111,17.0125702 C3.79491947,20.4044514 20.4292412,21.1753335 20.5804623,4.98680964 C21.4877889,4.67845681 23,2.36581055 23,2.36581055 C23,2.36581055 20.5804623,3.13669263 20.4292412,2.98251622 C22.2438945,1.90328129 22.3951156,0.361517117 22.3951156,0.361517117" id="路径"></path>
                                    </g>
                                </g>
                            </g>
                        </g>
                    </g>
                </g>
            </g>
        </g>
    </g>
</svg>