<?xml version="1.0" encoding="UTF-8"?>
<svg width="32px" height="32px" viewBox="0 0 32 32" version="1.1" xmlns="http://www.w3.org/2000/svg" xmlns:xlink="http://www.w3.org/1999/xlink">
    <!-- Generator: Sketch 60 (88103) - https://sketch.com -->
    <title>icon_discord</title>
    <desc>Created with Sketch.</desc>
    <g id="页面-2" stroke="none" stroke-width="1" fill="none" fill-rule="evenodd">
        <g id="关于" transform="translate(-984.000000, -949.000000)">
            <g id="编组-7" transform="translate(600.000000, 192.000000)">
                <g id="编组-20">
                    <g id="形状结合">
                        <g id="编组-3" transform="translate(144.000000, 757.000000)">
                            <g id="icon_discord" transform="translate(240.000000, 0.000000)">
                                <g id="icon_推特">
                                    <rect id="矩形" x="0" y="0" width="32" height="32"></rect>
                                    <path d="M18.9990296,19 C17.8937409,19 17,18.1054546 17,17 C17,15.8963636 17.8937409,15 18.9990296,15 C20.1033479,15 21,15.8963636 21,17 C21,18.1054545 20.1033479,19 18.9990296,19 L18.9990296,19 Z M12.0009704,19 C10.8966521,19 10,18.1054546 10,17 C10,15.8963636 10.8966521,15 12.0009704,15 C13.1062591,15 14,15.8963636 14,17 C14,18.1054545 13.1062591,19 12.0009704,19 Z M25.412,15.3722645 C24.784625,12.3988153 23.4135,9.88417723 23.4135,9.88417723 C20.7885,7.92452418 18.3315,8.00040449 18.3315,8.00040449 L18.176625,8.25980927 C21.0475,8.93037941 22.850875,10.575041 22.850875,10.5750409 C20.505,9.23919461 17.31125,8.77508949 15.5,8.77508949 C13.68875,8.77508949 10.495,9.23919462 8.14912499,10.5750409 C8.14912499,10.5750409 9.95162498,8.92949708 12.823375,8.25804461 L12.6685,8.00040449 C12.6685,8.00040449 10.20975,7.92364186 7.5865,9.88505955 C7.5865,9.88505955 6.215375,12.397933 5.588,15.3722645 C5.25513048,16.9884589 5.0584293,18.6301493 5,20.2797792 C5,20.2797792 5.938,21.6015083 7.31524999,22.2517849 C8.63824999,22.8791209 9.62962499,22.9876474 10.469625,23 L11.699,21.5300396 C11.699,21.5300396 9.64275,20.9238795 8.556,19.4539192 C8.556,19.4539192 11.465375,21.4656296 15.5,21.4656296 C19.53375,21.4656296 22.444,19.4539192 22.444,19.4539192 C21.356375,20.9238795 19.30275,21.5300396 19.30275,21.5300396 L20.5295,23 C21.3695,22.9876474 22.360875,22.8791209 23.683875,22.2517849 C25.062,21.603273 26,20.2797792 26,20.2797792 C26,20.2797792 25.9545,17.9451363 25.412,15.3722645 Z" id="形状" fill="#FC6446" fill-rule="nonzero"></path>
                                </g>
                            </g>
                        </g>
                    </g>
                </g>
            </g>
        </g>
    </g>
</svg>