<?xml version="1.0" encoding="UTF-8"?>
<svg width="32px" height="32px" viewBox="0 0 32 32" version="1.1" xmlns="http://www.w3.org/2000/svg" xmlns:xlink="http://www.w3.org/1999/xlink">
    <!-- Generator: Sketch 60 (88103) - https://sketch.com -->
    <title>icon_reddit</title>
    <desc>Created with Sketch.</desc>
    <g id="页面-2" stroke="none" stroke-width="1" fill="none" fill-rule="evenodd">
        <g id="关于" transform="translate(-1144.000000, -949.000000)">
            <g id="编组-7" transform="translate(600.000000, 192.000000)">
                <g id="编组-20">
                    <g id="形状结合">
                        <g id="编组-3" transform="translate(144.000000, 757.000000)">
                            <g id="icon_reddit" transform="translate(400.000000, 0.000000)">
                                <g id="icon_推特">
                                    <rect id="矩形" x="0" y="0" width="32" height="32"></rect>
                                    <path d="M17.4351023,6.32387178 C17.4952462,6.04768218 17.6546754,5.94863488 17.9124352,6.0248251 L22.2198876,6.98863158 C22.538746,6.33053842 23.0628575,6.00101565 23.7922222,6.00101565 C24.2781471,6.00101565 24.6924721,6.17339605 25.0342425,6.51815687 C25.3760129,6.86291769 25.5478527,7.28005922 25.5478527,7.77053386 C25.5557685,8.24026141 25.3701002,8.6926471 25.0342425,9.02195846 C24.7102792,9.35905812 24.2602833,9.54642337 23.7922222,9.53909969 C23.3215719,9.53909969 22.9148843,9.3705288 22.5731139,9.03433938 C22.2356814,8.70852364 22.0425545,8.26183103 22.0365917,7.79339093 L18.1406003,6.89815566 L16.9090814,12.4743285 C19.2480127,12.5371854 21.2766777,13.1648025 22.9931669,14.3581321 C23.4638172,13.8838478 24.0175234,13.6467058 24.6552402,13.6467058 C25.2813459,13.6335853 25.8842684,13.8830206 26.3173134,14.3343226 C26.772689,14.7952735 26.9999506,15.3467004 26.9999506,15.9886031 C27.0027635,16.449554 26.8853396,16.8666956 26.6495371,17.2409801 C26.4251816,17.605008 26.1070397,17.902325 25.7282846,18.1019298 C25.8197334,18.4698871 25.8658975,18.8475899 25.8657565,19.2266881 C25.8676658,21.0933489 24.9569146,22.6895343 23.1325481,24.0133396 C21.3091363,25.3371449 19.1076769,26 16.5243511,26 C13.9562999,26 11.7615231,25.3380973 9.94002064,24.0133396 C8.11851819,22.6895343 7.20776696,21.0943012 7.20776694,19.2266881 C7.20776694,18.8743082 7.24595359,18.5066904 7.3213722,18.1247868 C6.92770034,17.927955 6.59654229,17.6259452 6.364797,17.2524086 C6.12358691,16.87505 5.99693679,16.4361444 6.00005627,15.9886031 C6.00005627,15.3447956 6.22732511,14.7933688 6.68270073,14.3343226 C7.11682131,13.8845908 7.71902232,13.635454 8.34477398,13.6467058 C9.01304009,13.6467058 9.57629293,13.8914669 10.0307139,14.3819415 C11.7156991,13.2048024 13.7281348,12.5695663 16.0670661,12.4771856 L17.4351023,6.32387178 Z M19.5647864,22.0002653 C19.4505115,21.9967844 19.3413439,22.0492333 19.2702384,22.141779 C18.6396035,22.8005496 17.5501534,23.1294469 16.0028322,23.1294469 C14.4545669,23.1294469 13.3660609,22.8005496 12.735426,22.141779 C12.6643205,22.0492333 12.5551529,21.9967844 12.440878,22.0002653 C12.3269316,21.9970948 12.2181782,22.0495127 12.147274,22.141779 C11.9509087,22.3447779 11.9509087,22.5477769 12.147274,22.7527277 C12.9431201,23.5842426 14.2270474,24 15.999056,24 C17.7729526,24 19.0568799,23.5842426 19.852726,22.7527277 C20.0490913,22.5507047 20.0490913,22.3467298 19.852726,22.141779 C19.7850015,22.0486486 19.6774069,21.9957691 19.5647864,22.0002653 L19.5647864,22.0002653 Z M13,17.000234 C12.445439,17.000234 11.9745983,17.1940837 11.5842245,17.585014 C11.202072,17.9575793 10.9909931,18.4691111 11.0002949,19.000117 C11.0002949,19.5364346 11.1992877,20.0038278 11.5983606,20.4022967 C11.9963461,20.8007656 12.4639247,21 13,21 C13.5350059,21 14.0025845,20.8007656 14.4016574,20.4022967 C14.7996429,20.0038278 14.9997231,19.5364346 14.9997231,19.000117 C15.0087394,18.4689521 14.7972577,17.9573972 14.4147061,17.585014 C14.0457025,17.2038239 13.5331441,16.9919524 13,17.000234 L13,17.000234 Z M21,17.0002176 C20.4465149,17.0002176 19.9745846,17.1940681 19.5852965,17.585 C19.2027432,17.9573847 18.9912606,18.4689417 19.0002769,19.0001088 C19.0002769,19.5364286 19.1992706,20.0038237 19.5983453,20.4022942 C19.99742,20.8007648 20.4639133,21 21.0010874,21 C21.5360867,21 22.0036674,20.8007648 22.4016547,20.4022942 C22.8007294,20.0038237 22.9997231,19.5364286 22.9997231,19.0001088 C23.0087394,18.4689417 22.7972568,17.9573847 22.4147035,17.585 C22.0459571,17.2040848 21.5338488,16.9922367 21.0010874,17.0002176 L21,17.0002176 Z" id="形状" fill="#FC6446" fill-rule="nonzero"></path>
                                </g>
                            </g>
                        </g>
                    </g>
                </g>
            </g>
        </g>
    </g>
</svg>