<?xml version="1.0" encoding="UTF-8"?>
<svg width="32px" height="32px" viewBox="0 0 32 32" version="1.1" xmlns="http://www.w3.org/2000/svg" xmlns:xlink="http://www.w3.org/1999/xlink">
    <!-- Generator: Sketch 60 (88103) - https://sketch.com -->
    <title>icon_medium</title>
    <desc>Created with Sketch.</desc>
    <g id="页面-2" stroke="none" stroke-width="1" fill="none" fill-rule="evenodd">
        <g id="关于" transform="translate(-1064.000000, -949.000000)">
            <g id="编组-7" transform="translate(600.000000, 192.000000)">
                <g id="编组-20">
                    <g id="形状结合">
                        <g id="编组-3" transform="translate(144.000000, 757.000000)">
                            <g id="icon_medium" transform="translate(320.000000, 0.000000)">
                                <g id="icon_推特">
                                    <rect id="矩形" x="0" y="0" width="32" height="32"></rect>
                                    <path d="M13,11.0970297 L13,24.3267327 C13,24.5287129 12.965,24.6633663 12.86,24.7980198 C12.755,24.9326733 12.615,25 12.44,25 C12.3,25 12.195,24.9663366 12.055,24.8990099 L6.59499999,22.2732673 C6.42,22.2059406 6.27999999,22.0712871 6.17499999,21.9029703 C6.06999999,21.7346535 6,21.5663366 6,21.3643564 L6,8.53861387 C6,8.4039604 6.03500001,8.26930694 6.105,8.16831683 C6.17499999,8.06732673 6.27999999,8 6.45500001,8 C6.56000001,8 6.735,8.06732673 6.98000001,8.16831683 L12.965,11.0633663 C13,11.0633663 13,11.0970297 13,11.0970297 Z M13,12 L19,22 L13,18.9310345 L13,12 Z M26,12 L26,23.3870968 C26,23.5806452 25.9340659,23.7096774 25.8351648,23.8387097 C25.7362637,23.9354839 25.6043956,24 25.4065934,24 C25.2087912,24 25.043956,23.9677419 24.8791209,23.8709677 L20,21.483871 L26,12 Z M26,11.0780856 C26,11.1108312 24.9936909,12.6171284 23.0157729,15.6624685 C21.0378549,18.7078086 19.8580442,20.4760705 19.511041,21 L15,14.0579345 L18.7476341,8.29471033 C18.8864353,8.09823678 19.0946372,8 19.3375394,8 C19.4416404,8 19.5457413,8.0327456 19.6498423,8.06549118 L25.9305994,11.0125945 C26,11.0125945 26,11.0453401 26,11.0780856 L26,11.0780856 Z" id="形状" fill="#FC6446" fill-rule="nonzero"></path>
                                </g>
                            </g>
                        </g>
                    </g>
                </g>
            </g>
        </g>
    </g>
</svg>